<svg width="900" height="560" viewBox="0 0 900 560" xmlns="http://www.w3.org/2000/svg">
  <title>Élèves</title>
  <rect x="0" y="0" width="900" height="560" fill="#FFFFFF" stroke="#D8DEE6"/>

  <rect x="0" y="0" width="900" height="34" rx="10" fill="#E4E7EC"/>
  <rect x="0" y="12" width="900" height="22" fill="#E4E7EC"/>
  <circle cx="18" cy="17" r="5" fill="#FF5F57"/>
  <circle cx="36" cy="17" r="5" fill="#FEBC2E"/>
  <circle cx="54" cy="17" r="5" fill="#28C840"/>
  <rect x="80" y="7" width="380" height="20" rx="10" fill="#FFFFFF" stroke="#CCD3DC"/>
  <text x="96" y="21" font-family="Consolas, monospace" font-size="11" fill="#8592A3">app.schoolflow.pro/lycee-excellence/admin/students</text>
<rect x="0" y="34" width="210" height="526" fill="#FFFFFF" stroke="#D8DEE6"/><rect x="0" y="34" width="210" height="46" fill="#16385A"/><text x="16" y="63" font-family="Georgia, serif" font-size="13" font-weight="700" fill="white">Lycée Excellence de Conakry</text><text x="16" y="96" font-family="Segoe UI" font-size="9.5" font-weight="700" letter-spacing="0.05em" fill="#8592A3">VUE D&#x27;ENSEMBLE</text><text x="20" y="114" font-family="Segoe UI" font-size="10.5" font-weight="400" fill="#4A5568">Tableau de bord</text><text x="20" y="134" font-family="Segoe UI" font-size="10.5" font-weight="400" fill="#4A5568">Analytiques</text><text x="16" y="158" font-family="Segoe UI" font-size="9.5" font-weight="700" letter-spacing="0.05em" fill="#8592A3">GESTION ACADÉMIQUE</text><text x="20" y="176" font-family="Segoe UI" font-size="10.5" font-weight="400" fill="#4A5568">Admissions</text><rect x="8" y="182" width="194" height="20" rx="5" fill="#DDEBF7"/><text x="20" y="196" font-family="Segoe UI" font-size="10.5" font-weight="700" fill="#1F4E79">Élèves</text><text x="20" y="216" font-family="Segoe UI" font-size="10.5" font-weight="400" fill="#4A5568">Enseignants</text><text x="20" y="236" font-family="Segoe UI" font-size="10.5" font-weight="400" fill="#4A5568">Notes</text><text x="16" y="260" font-family="Segoe UI" font-size="9.5" font-weight="700" letter-spacing="0.05em" fill="#8592A3">STRUCTURE</text><text x="20" y="278" font-family="Segoe UI" font-size="10.5" font-weight="400" fill="#4A5568">Années académiques</text><text x="20" y="298" font-family="Segoe UI" font-size="10.5" font-weight="400" fill="#4A5568">Trimestres</text><text x="20" y="318" font-family="Segoe UI" font-size="10.5" font-weight="400" fill="#4A5568">Niveaux</text><text x="20" y="338" font-family="Segoe UI" font-size="10.5" font-weight="400" fill="#4A5568">Classes</text><text x="20" y="358" font-family="Segoe UI" font-size="10.5" font-weight="400" fill="#4A5568">Matières</text><text x="20" y="378" font-family="Segoe UI" font-size="10.5" font-weight="400" fill="#4A5568">Campus</text><text x="20" y="398" font-family="Segoe UI" font-size="10.5" font-weight="400" fill="#4A5568">Départements</text><text x="16" y="422" font-family="Segoe UI" font-size="9.5" font-weight="700" letter-spacing="0.05em" fill="#8592A3">PLANIFICATION</text><text x="20" y="440" font-family="Segoe UI" font-size="10.5" font-weight="400" fill="#4A5568">Emploi du temps</text><text x="20" y="460" font-family="Segoe UI" font-size="10.5" font-weight="400" fill="#4A5568">Calendrier</text><text x="16" y="484" font-family="Segoe UI" font-size="9.5" font-weight="700" letter-spacing="0.05em" fill="#8592A3">PRÉSENCES</text><text x="20" y="502" font-family="Segoe UI" font-size="10.5" font-weight="400" fill="#4A5568">Badges</text><text x="20" y="522" font-family="Segoe UI" font-size="10.5" font-weight="400" fill="#4A5568">Présence en direct</text><rect x="210" y="34" width="690" height="526" fill="#F7F8FA"/><rect x="210" y="34" width="690" height="44" fill="#FFFFFF" stroke="#D8DEE6"/><text x="234" y="61" font-family="Segoe UI" font-size="13" font-weight="700" fill="#1A2430">Élèves</text><text x="876" y="61" font-family="Segoe UI" font-size="10" fill="#8592A3" text-anchor="end">Gestion Académique / Élèves</text><rect x="234" y="96" width="636" height="34" rx="7" fill="#FFFFFF" stroke="#D8DEE6"/><text x="246" y="118" font-family="Segoe UI" font-size="11" fill="#8592A3">🔍 Rechercher un élève…</text><rect x="750" y="96" width="120" height="34" rx="7" fill="#DDEBF7" stroke="#1F4E79"/><text x="810" y="118" font-family="Segoe UI" font-size="10.5" fill="#16385A" text-anchor="middle">Filtre : Terminale D</text><rect x="234" y="144" width="636" height="32" fill="#1F4E79"/><text x="246" y="164.0" font-family="Segoe UI" font-size="10.5" font-weight="700" fill="white">Nom</text><text x="405.0" y="164.0" font-family="Segoe UI" font-size="10.5" font-weight="700" fill="white">Classe</text><text x="564.0" y="164.0" font-family="Segoe UI" font-size="10.5" font-weight="700" fill="white">Statut</text><text x="723.0" y="164.0" font-family="Segoe UI" font-size="10.5" font-weight="700" fill="white">Contact parent</text><rect x="234" y="176" width="636" height="30" fill="#FFFFFF" stroke="#D8DEE6" stroke-width="0.5"/><text x="246" y="195.0" font-family="Segoe UI" font-size="10.5" fill="#1A2430">Diallo Aissatou</text><text x="405.0" y="195.0" font-family="Segoe UI" font-size="10.5" fill="#1A2430">Terminale D</text><text x="564.0" y="195.0" font-family="Segoe UI" font-size="10.5" fill="#1A2430">Actif</text><text x="723.0" y="195.0" font-family="Segoe UI" font-size="10.5" fill="#1A2430">622 00 11 22</text><rect x="234" y="206" width="636" height="30" fill="#F0F3F7" stroke="#D8DEE6" stroke-width="0.5"/><text x="246" y="225.0" font-family="Segoe UI" font-size="10.5" fill="#1A2430">Bah Mamadou</text><text x="405.0" y="225.0" font-family="Segoe UI" font-size="10.5" fill="#1A2430">Terminale D</text><text x="564.0" y="225.0" font-family="Segoe UI" font-size="10.5" fill="#1A2430">Actif</text><text x="723.0" y="225.0" font-family="Segoe UI" font-size="10.5" fill="#1A2430">628 33 44 55</text><rect x="234" y="236" width="636" height="30" fill="#FFFFFF" stroke="#D8DEE6" stroke-width="0.5"/><text x="246" y="255.0" font-family="Segoe UI" font-size="10.5" fill="#1A2430">Camara Fatoumata</text><text x="405.0" y="255.0" font-family="Segoe UI" font-size="10.5" fill="#1A2430">Terminale D</text><text x="564.0" y="255.0" font-family="Segoe UI" font-size="10.5" fill="#1A2430">Actif</text><text x="723.0" y="255.0" font-family="Segoe UI" font-size="10.5" fill="#1A2430">620 66 77 88</text><rect x="234" y="144" width="636" height="122" fill="none" stroke="#D8DEE6"/>
  <rect x="0" y="530" width="900" height="30" fill="#FFF7E6"/>
  <text x="450.0" y="549" font-family="Segoe UI, Arial" font-size="11" font-weight="700"
        fill="#8A6D1A" text-anchor="middle" letter-spacing="0.06em">
    ILLUSTRATION SCHÉMATIQUE — NE REPRÉSENTE PAS UNE CAPTURE RÉELLE DE L'APPLICATION
  </text>
</svg>